<mxfile host="app.diagrams.net" agent="Mozilla/5.0 (Windows NT 10.0; Win64; x64) AppleWebKit/537.36 (KHTML, like Gecko) Chrome/126.0.0.0 Safari/537.36" version="24.7.4">
  <diagram name="Page-1" id="QUtDIccSRgERD6ln696T">
    <mxGraphModel dx="1114" dy="600" grid="1" gridSize="10" guides="1" tooltips="1" connect="1" arrows="1" fold="1" page="1" pageScale="1" pageWidth="850" pageHeight="1100" math="0" shadow="0">
      <root>
        <mxCell id="0" />
        <mxCell id="1" parent="0" />
        <mxCell id="07gmpoXII292DJnsWcgK-1" value="FLDAS Climate variables" style="rounded=1;whiteSpace=wrap;html=1;fontSize=12;glass=0;strokeWidth=1;shadow=0;" vertex="1" parent="1">
          <mxGeometry x="54" y="194" width="120" height="40" as="geometry" />
        </mxCell>
        <mxCell id="07gmpoXII292DJnsWcgK-2" value="" style="shape=partialRectangle;whiteSpace=wrap;html=1;bottom=0;right=0;fillColor=none;rotation=-90;" vertex="1" parent="1">
          <mxGeometry x="136" y="219" width="30" height="60" as="geometry" />
        </mxCell>
        <mxCell id="07gmpoXII292DJnsWcgK-3" style="edgeStyle=orthogonalEdgeStyle;rounded=0;orthogonalLoop=1;jettySize=auto;html=1;entryX=0;entryY=0.5;entryDx=0;entryDy=0;" edge="1" parent="1" source="07gmpoXII292DJnsWcgK-4" target="07gmpoXII292DJnsWcgK-21">
          <mxGeometry relative="1" as="geometry">
            <mxPoint x="424" y="364" as="targetPoint" />
            <Array as="points">
              <mxPoint x="354" y="264" />
              <mxPoint x="354" y="334" />
            </Array>
          </mxGeometry>
        </mxCell>
        <mxCell id="07gmpoXII292DJnsWcgK-4" value="Precipitation" style="rounded=1;whiteSpace=wrap;html=1;fontSize=12;glass=0;strokeWidth=1;shadow=0;" vertex="1" parent="1">
          <mxGeometry x="174" y="244" width="120" height="40" as="geometry" />
        </mxCell>
        <mxCell id="07gmpoXII292DJnsWcgK-5" value="" style="shape=partialRectangle;whiteSpace=wrap;html=1;bottom=0;right=0;fillColor=none;rotation=-90;" vertex="1" parent="1">
          <mxGeometry x="122" y="260" width="58" height="60" as="geometry" />
        </mxCell>
        <mxCell id="07gmpoXII292DJnsWcgK-6" value="Temperature" style="rounded=1;whiteSpace=wrap;html=1;fontSize=12;glass=0;strokeWidth=1;shadow=0;" vertex="1" parent="1">
          <mxGeometry x="174" y="294" width="120" height="40" as="geometry" />
        </mxCell>
        <mxCell id="07gmpoXII292DJnsWcgK-7" value="" style="shape=partialRectangle;whiteSpace=wrap;html=1;bottom=0;right=0;fillColor=none;rotation=-90;" vertex="1" parent="1">
          <mxGeometry x="122" y="314" width="58" height="60" as="geometry" />
        </mxCell>
        <mxCell id="07gmpoXII292DJnsWcgK-8" style="edgeStyle=orthogonalEdgeStyle;rounded=0;orthogonalLoop=1;jettySize=auto;html=1;" edge="1" parent="1" source="07gmpoXII292DJnsWcgK-9" target="07gmpoXII292DJnsWcgK-21">
          <mxGeometry relative="1" as="geometry">
            <Array as="points">
              <mxPoint x="354" y="368" />
              <mxPoint x="354" y="334" />
            </Array>
          </mxGeometry>
        </mxCell>
        <mxCell id="07gmpoXII292DJnsWcgK-9" value="Runoff" style="rounded=1;whiteSpace=wrap;html=1;fontSize=12;glass=0;strokeWidth=1;shadow=0;" vertex="1" parent="1">
          <mxGeometry x="174" y="348" width="120" height="40" as="geometry" />
        </mxCell>
        <mxCell id="07gmpoXII292DJnsWcgK-10" value="" style="shape=partialRectangle;whiteSpace=wrap;html=1;bottom=0;right=0;fillColor=none;rotation=-90;" vertex="1" parent="1">
          <mxGeometry x="122" y="364" width="58" height="60" as="geometry" />
        </mxCell>
        <mxCell id="07gmpoXII292DJnsWcgK-11" style="edgeStyle=orthogonalEdgeStyle;rounded=0;orthogonalLoop=1;jettySize=auto;html=1;" edge="1" parent="1" source="07gmpoXII292DJnsWcgK-12">
          <mxGeometry relative="1" as="geometry">
            <mxPoint x="464" y="334" as="targetPoint" />
            <Array as="points">
              <mxPoint x="354" y="418" />
              <mxPoint x="354" y="334" />
            </Array>
          </mxGeometry>
        </mxCell>
        <mxCell id="07gmpoXII292DJnsWcgK-12" value="Evapotranspiration" style="rounded=1;whiteSpace=wrap;html=1;fontSize=12;glass=0;strokeWidth=1;shadow=0;" vertex="1" parent="1">
          <mxGeometry x="174" y="398" width="120" height="40" as="geometry" />
        </mxCell>
        <mxCell id="07gmpoXII292DJnsWcgK-13" value="" style="shape=partialRectangle;whiteSpace=wrap;html=1;bottom=0;right=0;fillColor=none;rotation=-90;" vertex="1" parent="1">
          <mxGeometry x="122" y="414" width="58" height="60" as="geometry" />
        </mxCell>
        <mxCell id="07gmpoXII292DJnsWcgK-14" style="edgeStyle=orthogonalEdgeStyle;rounded=0;orthogonalLoop=1;jettySize=auto;html=1;" edge="1" parent="1" source="07gmpoXII292DJnsWcgK-15">
          <mxGeometry relative="1" as="geometry">
            <mxPoint x="464" y="334" as="targetPoint" />
            <Array as="points">
              <mxPoint x="354" y="468" />
              <mxPoint x="354" y="334" />
            </Array>
          </mxGeometry>
        </mxCell>
        <mxCell id="07gmpoXII292DJnsWcgK-15" value="Soil Moisture" style="rounded=1;whiteSpace=wrap;html=1;fontSize=12;glass=0;strokeWidth=1;shadow=0;" vertex="1" parent="1">
          <mxGeometry x="174" y="448" width="120" height="40" as="geometry" />
        </mxCell>
        <mxCell id="07gmpoXII292DJnsWcgK-16" value="" style="edgeStyle=orthogonalEdgeStyle;rounded=0;orthogonalLoop=1;jettySize=auto;html=1;" edge="1" parent="1" source="07gmpoXII292DJnsWcgK-17" target="07gmpoXII292DJnsWcgK-19">
          <mxGeometry relative="1" as="geometry" />
        </mxCell>
        <mxCell id="07gmpoXII292DJnsWcgK-17" value="Digital Elevation Model" style="rounded=1;whiteSpace=wrap;html=1;fontSize=12;glass=0;strokeWidth=1;shadow=0;" vertex="1" parent="1">
          <mxGeometry x="414" y="124" width="120" height="40" as="geometry" />
        </mxCell>
        <mxCell id="07gmpoXII292DJnsWcgK-18" value="" style="edgeStyle=orthogonalEdgeStyle;rounded=0;orthogonalLoop=1;jettySize=auto;html=1;" edge="1" parent="1" source="07gmpoXII292DJnsWcgK-19" target="07gmpoXII292DJnsWcgK-21">
          <mxGeometry relative="1" as="geometry">
            <Array as="points">
              <mxPoint x="472" y="264" />
              <mxPoint x="472" y="264" />
            </Array>
          </mxGeometry>
        </mxCell>
        <mxCell id="07gmpoXII292DJnsWcgK-19" value="Watershed Delineation for 9 NWH basins" style="shape=parallelogram;perimeter=parallelogramPerimeter;whiteSpace=wrap;html=1;fixedSize=1;rounded=1;glass=0;strokeWidth=1;shadow=0;" vertex="1" parent="1">
          <mxGeometry x="414" y="184" width="120" height="60" as="geometry" />
        </mxCell>
        <mxCell id="07gmpoXII292DJnsWcgK-20" value="" style="edgeStyle=orthogonalEdgeStyle;rounded=0;orthogonalLoop=1;jettySize=auto;html=1;" edge="1" parent="1" source="07gmpoXII292DJnsWcgK-21" target="07gmpoXII292DJnsWcgK-24">
          <mxGeometry relative="1" as="geometry">
            <Array as="points">
              <mxPoint x="472" y="390" />
              <mxPoint x="554" y="390" />
            </Array>
          </mxGeometry>
        </mxCell>
        <mxCell id="07gmpoXII292DJnsWcgK-21" value="&lt;font style=&quot;font-size: 11px;&quot;&gt;Clipped&amp;nbsp;&lt;/font&gt;&lt;div style=&quot;font-size: 11px;&quot;&gt;&lt;font style=&quot;font-size: 11px;&quot;&gt;according to&amp;nbsp;&lt;/font&gt;&lt;/div&gt;&lt;div style=&quot;font-size: 11px;&quot;&gt;&lt;font style=&quot;font-size: 11px;&quot;&gt;NWH basins&amp;nbsp;&lt;/font&gt;&lt;/div&gt;&lt;div style=&quot;font-size: 11px;&quot;&gt;&lt;font style=&quot;font-size: 11px;&quot;&gt;boundary&lt;/font&gt;&lt;/div&gt;" style="shape=parallelogram;perimeter=parallelogramPerimeter;whiteSpace=wrap;html=1;fixedSize=1;rounded=1;glass=0;strokeWidth=1;shadow=0;fontSize=11;" vertex="1" parent="1">
          <mxGeometry x="412" y="304" width="120" height="60" as="geometry" />
        </mxCell>
        <mxCell id="07gmpoXII292DJnsWcgK-22" style="edgeStyle=orthogonalEdgeStyle;rounded=0;orthogonalLoop=1;jettySize=auto;html=1;entryX=0;entryY=0.5;entryDx=0;entryDy=0;" edge="1" parent="1" target="07gmpoXII292DJnsWcgK-21">
          <mxGeometry relative="1" as="geometry">
            <mxPoint x="414" y="334" as="targetPoint" />
            <mxPoint x="294" y="314" as="sourcePoint" />
            <Array as="points">
              <mxPoint x="354" y="314" />
              <mxPoint x="354" y="334" />
            </Array>
          </mxGeometry>
        </mxCell>
        <mxCell id="07gmpoXII292DJnsWcgK-23" value="" style="edgeStyle=orthogonalEdgeStyle;rounded=0;orthogonalLoop=1;jettySize=auto;html=1;" edge="1" parent="1" source="07gmpoXII292DJnsWcgK-24" target="07gmpoXII292DJnsWcgK-25">
          <mxGeometry relative="1" as="geometry" />
        </mxCell>
        <mxCell id="07gmpoXII292DJnsWcgK-24" value="Zonal Statistics" style="shape=parallelogram;perimeter=parallelogramPerimeter;whiteSpace=wrap;html=1;fixedSize=1;rounded=1;glass=0;strokeWidth=1;shadow=0;" vertex="1" parent="1">
          <mxGeometry x="494" y="404" width="120" height="60" as="geometry" />
        </mxCell>
        <mxCell id="07gmpoXII292DJnsWcgK-25" value="" style="whiteSpace=wrap;html=1;rounded=1;glass=0;strokeWidth=1;shadow=0;" vertex="1" parent="1">
          <mxGeometry x="494" y="504" width="120" height="60" as="geometry" />
        </mxCell>
        <mxCell id="07gmpoXII292DJnsWcgK-26" value="" style="shape=partialRectangle;whiteSpace=wrap;html=1;bottom=0;right=0;fillColor=none;rotation=-90;" vertex="1" parent="1">
          <mxGeometry x="122" y="474" width="58" height="60" as="geometry" />
        </mxCell>
        <mxCell id="07gmpoXII292DJnsWcgK-27" value="Snow Depth" style="rounded=1;whiteSpace=wrap;html=1;fontSize=12;glass=0;strokeWidth=1;shadow=0;" vertex="1" parent="1">
          <mxGeometry x="174" y="508" width="120" height="40" as="geometry" />
        </mxCell>
        <mxCell id="07gmpoXII292DJnsWcgK-28" style="edgeStyle=orthogonalEdgeStyle;rounded=0;orthogonalLoop=1;jettySize=auto;html=1;entryX=1;entryY=0.5;entryDx=0;entryDy=0;" edge="1" parent="1" source="07gmpoXII292DJnsWcgK-29" target="07gmpoXII292DJnsWcgK-21">
          <mxGeometry relative="1" as="geometry">
            <Array as="points">
              <mxPoint x="610" y="334" />
            </Array>
          </mxGeometry>
        </mxCell>
        <mxCell id="07gmpoXII292DJnsWcgK-29" value="Decadal LULC 2005" style="rounded=1;whiteSpace=wrap;html=1;fontSize=12;glass=0;strokeWidth=1;shadow=0;" vertex="1" parent="1">
          <mxGeometry x="550" y="124" width="120" height="40" as="geometry" />
        </mxCell>
        <mxCell id="07gmpoXII292DJnsWcgK-30" value="" style="edgeStyle=orthogonalEdgeStyle;rounded=0;orthogonalLoop=1;jettySize=auto;html=1;" edge="1" parent="1" source="07gmpoXII292DJnsWcgK-31" target="07gmpoXII292DJnsWcgK-32">
          <mxGeometry relative="1" as="geometry" />
        </mxCell>
        <mxCell id="07gmpoXII292DJnsWcgK-31" value="&amp;nbsp;Overlay Randolf Glacier Inventory boundary" style="shape=parallelogram;perimeter=parallelogramPerimeter;whiteSpace=wrap;html=1;fixedSize=1;rounded=1;glass=0;strokeWidth=1;shadow=0;" vertex="1" parent="1">
          <mxGeometry x="366" y="405" width="120" height="60" as="geometry" />
        </mxCell>
        <mxCell id="07gmpoXII292DJnsWcgK-32" value="" style="whiteSpace=wrap;html=1;rounded=1;glass=0;strokeWidth=1;shadow=0;" vertex="1" parent="1">
          <mxGeometry x="366" y="505" width="120" height="60" as="geometry" />
        </mxCell>
        <mxCell id="07gmpoXII292DJnsWcgK-33" value="" style="edgeStyle=orthogonalEdgeStyle;rounded=0;orthogonalLoop=1;jettySize=auto;html=1;entryX=0.5;entryY=0;entryDx=0;entryDy=0;exitX=0.5;exitY=1;exitDx=0;exitDy=0;" edge="1" parent="1" source="07gmpoXII292DJnsWcgK-21" target="07gmpoXII292DJnsWcgK-31">
          <mxGeometry relative="1" as="geometry">
            <mxPoint x="470" y="380" as="sourcePoint" />
            <mxPoint x="564" y="414" as="targetPoint" />
            <Array as="points">
              <mxPoint x="472" y="390" />
              <mxPoint x="426" y="390" />
            </Array>
          </mxGeometry>
        </mxCell>
      </root>
    </mxGraphModel>
  </diagram>
</mxfile>
